HIERARCHY
ROOT Hips
{
	OFFSET -3.958830 18.904000 13.208200
	CHANNELS 6 Xposition Yposition Zposition Zrotation Yrotation Xrotation 
	JOINT LHipJoint
	{
		OFFSET 0.000000 0.000000 0.000000
		CHANNELS 3 Zrotation Yrotation Xrotation
		JOINT LeftUpLeg
		{
			OFFSET 1.800000 -1.400000 0.085000
			CHANNELS 3 Zrotation Yrotation Xrotation
			JOINT LeftLeg
			{
				OFFSET 2.215000 -6.000000 0.000000
				CHANNELS 3 Zrotation Yrotation Xrotation
				JOINT LeftFoot
				{
					OFFSET 2.500000 -6.900000 0.000000
					CHANNELS 3 Zrotation Yrotation Xrotation
					JOINT LeftToeBase
					{
						OFFSET 0.200000 -0.500000 1.950000
						CHANNELS 3 Zrotation Yrotation Xrotation
						End Site
						{
							OFFSET 0.000000 0.000000 0.000000
						}
					}
				}
			}
		}
	}
	JOINT RHipJoint
	{
		OFFSET 0.000000 0.000000 0.000000
		CHANNELS 3 Zrotation Yrotation Xrotation
		JOINT RightUpLeg
		{
			OFFSET -1.800000 -1.400000 0.085000
			CHANNELS 3 Zrotation Yrotation Xrotation
			JOINT RightLeg
			{
				OFFSET -2.215000 -6.000000 0.000000
				CHANNELS 3 Zrotation Yrotation Xrotation
				JOINT RightFoot
				{
					OFFSET -2.500000 -6.900000 0.000000
					CHANNELS 3 Zrotation Yrotation Xrotation
					JOINT RightToeBase
					{
						OFFSET -0.200000 -0.500000 1.950000
						CHANNELS 3 Zrotation Yrotation Xrotation
						End Site
						{
							OFFSET 0.000000 0.000000 0.000000
						}
					}
				}
			}
		}
	}
	JOINT LowerBack
	{
		OFFSET 0.000000 0.000000 0.000000
		CHANNELS 3 Zrotation Yrotation Xrotation
		JOINT Spine
		{
			OFFSET -0.087000 1.940000 -0.288900
			CHANNELS 3 Zrotation Yrotation Xrotation
			JOINT Spine1
			{
				OFFSET 0.000000 1.950000 0.060000
				CHANNELS 3 Zrotation Yrotation Xrotation
				JOINT Neck
				{
					OFFSET 0.000000 0.000000 0.000000
					CHANNELS 3 Zrotation Yrotation Xrotation
					JOINT Neck1
					{
						OFFSET 0.000000 1.600000 0.340000
						CHANNELS 3 Zrotation Yrotation Xrotation
						JOINT Head
						{
							OFFSET 0.000000 1.667000 -0.240000
							CHANNELS 3 Zrotation Yrotation Xrotation
							End Site
							{
								OFFSET 0.000000 0.000000 0.000000
							}
						}
					}
				}
				JOINT LeftShoulder
				{
					OFFSET 0.000000 0.000000 0.000000
					CHANNELS 3 Zrotation Yrotation Xrotation
					JOINT LeftArm
					{
						OFFSET 2.700000 1.550000 -0.730000
						CHANNELS 3 Zrotation Yrotation Xrotation
						JOINT LeftForeArm
						{
							OFFSET 5.450000 0.000000 0.000000
							CHANNELS 3 Zrotation Yrotation Xrotation
							JOINT LeftHand
							{
								OFFSET 3.450000 0.000000 0.000000
								CHANNELS 3 Zrotation Yrotation Xrotation
								JOINT LeftHandIndex1
								{
									OFFSET 0.750000 0.000000 0.000000
									CHANNELS 3 Zrotation Yrotation Xrotation
									End Site
									{
										OFFSET 0.000000 0.000000 0.000000
									}
								}
							}
						}
					}
				}
				JOINT RightShoulder
				{
					OFFSET 0.000000 0.000000 0.000000
					CHANNELS 3 Zrotation Yrotation Xrotation
					JOINT RightArm
					{
						OFFSET -2.700000 1.550000 -0.730000
						CHANNELS 3 Zrotation Yrotation Xrotation
						JOINT RightForeArm
						{
							OFFSET -5.450000 0.000000 0.000000
							CHANNELS 3 Zrotation Yrotation Xrotation
							JOINT RightHand
							{
								OFFSET -3.450000 0.000000 0.000000
								CHANNELS 3 Zrotation Yrotation Xrotation
								JOINT RightHandIndex1
								{
									OFFSET -0.750000 0.000000 0.000000
									CHANNELS 3 Zrotation Yrotation Xrotation
									End Site
									{
										OFFSET 0.000000 0.000000 0.000000
									}
								}
							}
						}
					}
				}
			}
		}
	}
}
MOTION
Frames: 10
Frame Time: 0.016667
-3.236980 16.358260 0.048650 -5.827613 5.794042 5.222458 -15.111866 10.390092 1.719387 30.906990 3.017909 -19.840182 1.822070 6.492892 12.437196 -0.014199 5.479627 3.072963 0.065840 -0.371710 -0.198950 18.925480 -8.121674 5.980913 -38.492472 4.147016 -11.985381 57.271085 -3.940906 -8.525148 -0.975949 -8.041007 1.919896 -0.084190 1.117400 0.330400 -4.502370 0.778216 -8.047838 -0.970404 3.795611 -0.431148 -2.503586 2.475685 13.393981 0.965017 -1.163179 -9.860285 -0.408594 9.914665 30.627409 -1.386020 4.173670 16.253170 10.388384 14.533603 5.101134 -45.249995 13.650056 -5.836584 -50.348078 -58.962476 26.971367 -3.368436 4.685661 -0.144610 0.809050 -0.702830 0.537670 -11.083442 -6.777216 7.475040 66.348066 24.648075 23.836014 177.302542 56.211796 161.764741 1.485019 -2.752452 -0.307330 0.157750 -0.018840 0.094700 
-3.331410 16.334510 0.072950 -5.738552 5.336401 4.747078 -15.091733 10.576930 1.493935 30.528456 3.308198 -19.307208 3.455126 6.528166 14.527717 -0.013071 5.505983 3.077345 -0.000430 -0.440630 -0.278260 18.934217 -8.218326 6.072118 -38.925271 4.233060 -12.088844 59.086338 -4.287639 -7.934648 -0.979154 -8.086743 1.932453 -0.120050 1.164940 0.285480 -4.542800 0.805813 -8.007883 -0.652518 3.919090 -0.108526 -3.136258 2.675582 12.425712 0.797776 -1.976244 -9.631928 -1.697185 10.913280 31.073524 0.054150 3.384020 17.028760 9.584274 14.984215 5.057152 -46.235846 13.585230 -6.447553 -47.199268 -60.966348 26.043273 -3.372211 4.668286 -0.131890 0.799690 -0.737940 0.533190 -10.026469 -6.615368 7.274498 65.109530 23.876270 23.478681 175.704464 55.226841 159.236063 1.504981 -2.680138 -0.344380 0.206130 0.031420 0.108870 
-3.483090 16.291830 0.122410 -5.832329 4.969339 4.169419 -15.072479 10.713964 1.339162 30.509535 3.624086 -18.715847 4.561959 6.709902 16.690079 0.060847 5.587951 3.058009 -0.009790 -0.435990 -0.311600 18.937527 -8.362685 6.089325 -38.849315 4.271665 -12.307209 61.382821 -5.113507 -6.699846 -1.021707 -8.173331 1.924957 -0.139740 1.171510 0.272100 -4.572462 0.952927 -7.960978 -0.413194 4.138020 0.174428 -3.740870 2.825550 10.693390 0.958214 -2.474871 -9.016660 -2.370537 11.524046 31.402311 0.802320 3.068010 17.955800 7.756902 15.996378 4.739921 -46.381433 13.639648 -6.685543 -43.779286 -64.511476 25.600988 -3.374073 4.714841 -0.147590 0.784210 -0.734140 0.556100 -8.667993 -7.345392 6.698245 63.101390 22.456242 23.211476 172.659858 53.694699 154.157320 1.545176 -2.683775 -0.325870 0.201740 0.015940 0.140610 
-3.657840 16.235290 0.180690 -6.232856 4.457974 3.566373 -15.066193 10.844236 1.278257 30.920603 4.039585 -18.476019 5.429729 7.144883 19.352337 0.114362 5.876943 2.974139 -0.065090 -0.504410 -0.379640 18.930152 -8.484228 6.017275 -38.408936 4.360090 -13.073550 64.040682 -6.607447 -4.611021 -1.039423 -8.306004 1.913459 -0.174030 1.225150 0.236910 -4.574427 1.011152 -7.915544 0.156112 4.381838 0.206865 -4.223296 2.996400 8.870998 0.998363 -3.324515 -8.408318 -3.718348 12.566481 31.734179 1.973470 2.485020 19.515110 6.606604 17.552962 4.444192 -48.206011 12.885488 -6.830278 -35.827529 -68.944265 22.058792 -3.469878 4.655247 -0.152040 0.787990 -0.780210 0.565630 -7.789418 -8.354344 6.046739 61.358743 21.099612 22.920447 169.297602 52.495551 148.453975 1.570355 -2.673752 -0.359460 0.228280 0.045770 0.157240 
-3.837100 16.198130 0.234020 -6.601138 4.496671 2.558953 -15.068811 11.095328 1.244649 30.740830 4.242022 -18.804679 7.307594 7.167919 22.379379 0.154155 6.034424 2.896182 -0.031900 -0.466060 -0.361780 18.875715 -8.755268 5.792376 -36.947119 4.252962 -13.849068 64.993332 -9.171479 -1.196938 -1.101578 -8.474740 1.858045 -0.165560 1.176780 0.203180 -4.499925 1.010965 -7.844803 0.321233 4.352334 0.732048 -4.724305 2.817476 6.905000 1.251056 -3.962013 -7.705856 -4.667481 13.056369 33.216935 2.822450 2.132090 19.896700 4.447909 18.474648 3.928814 -48.771589 12.320624 -6.603427 -22.304527 -73.660061 14.531648 -3.590582 4.448753 -0.119340 0.731680 -0.753350 0.574320 -6.321465 -9.266830 5.054715 59.223241 20.353778 22.692740 164.485898 51.706456 140.062562 1.616333 -2.671311 -0.353400 0.222280 0.013970 0.155940 
-4.008690 16.155160 0.279840 -6.942116 4.589297 1.408567 -15.106635 11.413465 1.225223 30.220671 4.286787 -19.280002 9.687004 6.886976 25.407560 0.196248 6.266474 2.808100 -0.054750 -0.499030 -0.394730 18.780120 -9.041842 5.475713 -35.212313 4.135881 -14.742104 64.714648 -12.464531 3.151763 -1.143357 -8.741506 1.778059 -0.189760 1.192820 0.209140 -4.321962 0.858710 -7.716054 -0.022010 4.486070 1.069698 -4.532930 2.857608 5.494774 1.679520 -4.242905 -7.163243 -5.153673 13.234339 34.506932 3.304890 1.843180 20.904790 2.455547 18.720279 3.318299 -50.346680 11.025265 -6.925455 1.861052 -77.177401 -1.343081 -3.761710 4.110842 -0.114320 0.733070 -0.762280 0.573500 -5.196547 -9.926274 4.108422 56.341498 19.764019 22.306978 160.877909 50.275768 133.096531 1.643358 -2.686914 -0.352210 0.218820 0.040380 0.160950 
-4.177420 16.124550 0.320290 -7.268105 4.419901 -0.186049 -15.133090 11.749646 1.215305 29.773115 4.248775 -18.973847 11.564606 6.529658 27.703379 0.195556 6.475486 2.740140 -0.030880 -0.481880 -0.360350 18.689073 -9.347573 5.139528 -33.444763 4.212277 -15.834389 63.570557 -16.542569 8.850852 -1.233107 -9.099654 1.680452 -0.174960 1.179570 0.184460 -4.171374 0.676487 -7.600448 0.052968 4.397094 1.588251 -5.134143 2.817083 5.059045 2.287805 -4.484262 -6.920475 -5.639371 13.272774 36.604732 3.467770 1.980140 20.651380 0.677029 17.868390 2.901000 -51.417806 9.446993 -8.024328 26.863048 -77.903804 -18.680022 -3.767915 3.567291 -0.056080 0.709780 -0.736180 0.580570 -4.589416 -9.510226 3.467326 54.346072 20.263354 21.728607 156.004489 49.784021 123.653083 1.667041 -2.648266 -0.381600 0.263330 0.027220 0.139470 
-4.327390 16.111640 0.355680 -7.736829 4.752331 -2.271600 -15.162186 12.099726 1.302356 29.509589 4.187661 -18.897175 13.327499 6.122171 30.005225 0.216903 6.699595 2.633534 -0.004530 -0.456420 -0.350560 18.577623 -9.654543 4.798688 -31.383245 4.282572 -15.898933 60.809166 -20.619175 15.013384 -1.351416 -9.465127 1.568955 -0.176410 1.136540 0.167280 -3.988527 0.416397 -7.622431 0.324519 4.312342 3.016099 -5.244593 2.801943 4.037811 2.564390 -5.041092 -7.279225 -6.959422 13.278351 40.742601 4.923130 0.708700 20.269890 -0.797948 16.322313 2.792150 -52.413182 7.042326 -8.430978 46.702530 -76.493571 -31.313673 -3.630664 2.875077 0.033050 0.641670 -0.675260 0.580020 -3.692030 -7.920510 3.123161 50.318655 20.930487 20.611089 151.908029 49.156860 115.841930 1.713668 -2.568770 -0.381300 0.300100 0.034710 0.129560 
-4.458850 16.109050 0.375730 -8.390208 5.122998 -4.929007 -15.176083 12.427943 1.385868 29.239291 4.098243 -18.757521 15.277819 5.587694 32.833107 0.248052 6.983032 2.484787 0.103930 -0.348040 -0.238030 18.488608 -9.929854 4.489928 -28.795811 4.631350 -15.726238 56.169360 -24.304191 22.180087 -1.503047 -9.886567 1.415806 -0.130710 1.013360 0.154720 -3.869737 0.162290 -7.673700 1.189107 4.187753 5.024282 -5.729962 2.974865 4.381490 3.053873 -5.192172 -7.862941 -7.817959 12.890012 44.855976 5.851250 0.045310 18.489160 -2.078123 14.028584 2.713653 -52.813568 3.684160 -7.825900 62.997823 -73.835431 -40.922776 -3.401427 2.119094 0.129060 0.541090 -0.576420 0.569330 -3.368764 -5.799562 3.163806 46.519264 21.661904 18.686683 148.334612 49.880542 109.803778 1.760070 -2.494242 -0.354520 0.299850 -0.017290 0.091930 
-4.586410 16.107940 0.369720 -9.052837 5.430580 -8.580336 -15.175664 12.810386 1.437059 28.707757 3.904185 -18.075767 17.906821 4.555562 35.866747 0.293274 7.279629 2.319376 0.247430 -0.193740 -0.066570 18.397444 -10.195960 4.248082 -25.623330 5.281197 -14.532524 49.841573 -27.226825 30.355330 -1.710131 -10.382223 1.244745 -0.069380 0.830330 0.133050 -3.776897 -0.149892 -7.797897 2.340433 3.971007 8.546081 -6.723313 3.386079 6.073920 3.863379 -5.108371 -9.213917 -8.508072 12.444680 49.589133 6.544580 -0.047840 15.063370 -3.374386 10.118049 2.818108 -52.469680 -0.394726 -6.147435 75.689961 -68.335262 -47.981879 -3.288170 1.675874 0.255980 0.404980 -0.430320 0.540930 -3.627987 -2.053061 4.240774 42.729862 21.575976 15.140544 146.658510 51.763710 107.215848 1.826219 -2.328047 -0.314640 0.303010 -0.093040 0.032950 
